<?xml version="1.0" encoding="iso-8859-1"?>
<!-- Generator: Adobe Illustrator 21.0.0, SVG Export Plug-In . SVG Version: 6.00 Build 0)  -->
<svg version="1.1" id="Capa_1" xmlns="http://www.w3.org/2000/svg" xmlns:xlink="http://www.w3.org/1999/xlink" x="0px" y="0px"
	 viewBox="0 0 595.049 595.049" style="enable-background:new 0 0 595.049 595.049;" xml:space="preserve">
<g>
	<g>
		<g id="filled_outline_17_">
			<polygon style="fill:#F5AE45;" points="565.297,535.544 29.752,535.544 29.752,327.277 297.525,89.257 565.297,327.277 			"/>
			<path style="fill:#996E51;" d="M297.525,466.122L297.525,466.122c10.959,0,19.835,8.876,19.835,19.835v49.587l0,0h-39.67l0,0
				v-49.587C277.69,474.998,286.566,466.122,297.525,466.122z"/>
			<path style="fill:#996E51;" d="M297.525,337.194L297.525,337.194c10.959,0,19.835,8.876,19.835,19.835v39.67l0,0h-39.67l0,0
				v-39.67C277.69,346.071,286.566,337.194,297.525,337.194z"/>
			<path style="fill:#996E51;" d="M317.359,267.772h-39.67V240.36c0-13.587,7.676-26.014,19.835-32.093l0,0
				c12.159,6.079,19.835,18.506,19.835,32.093V267.772z"/>
			<path style="fill:#996E51;" d="M128.927,466.122L128.927,466.122c10.959,0,19.835,8.876,19.835,19.835v49.587l0,0h-39.67l0,0
				v-49.587C109.092,474.998,117.968,466.122,128.927,466.122z"/>
			<path style="fill:#996E51;" d="M148.762,396.699h-39.67v-27.412c0-13.587,7.676-26.014,19.835-32.093l0,0
				c12.159,6.079,19.835,18.506,19.835,32.093V396.699z"/>
			<path style="fill:#996E51;" d="M485.957,535.544h-39.67l0,0v-49.587c0-10.959,8.876-19.835,19.835-19.835l0,0
				c10.959,0,19.835,8.876,19.835,19.835V535.544L485.957,535.544z"/>
			<path style="fill:#996E51;" d="M446.287,396.699h39.67v-27.412c0-13.587-7.676-26.014-19.835-32.093l0,0
				c-12.159,6.079-19.835,18.506-19.835,32.093V396.699z"/>
			<rect y="525.627" style="fill:#FABC5F;" width="595.049" height="19.835"/>
			<rect x="257.855" y="386.782" style="fill:#FABC5F;" width="79.34" height="19.835"/>
			<rect x="257.855" y="257.855" style="fill:#FABC5F;" width="79.34" height="19.835"/>
			<polygon style="fill:#FABC5F;" points="218.185,148.762 198.35,148.762 198.35,49.587 178.515,49.587 178.515,535.544 
				188.432,535.544 198.35,535.544 218.185,535.544 228.102,535.544 238.02,535.544 238.02,49.587 218.185,49.587 			"/>
			<polygon style="fill:#FABC5F;" points="59.505,287.607 39.67,287.607 39.67,188.432 19.835,188.432 19.835,535.544 
				29.752,535.544 39.67,535.544 59.505,535.544 69.422,535.544 79.34,535.544 79.34,188.432 59.505,188.432 			"/>
			<polygon style="fill:#FABC5F;" points="396.699,148.762 376.864,148.762 376.864,49.587 357.029,49.587 357.029,535.544 
				366.947,535.544 376.864,535.544 396.699,535.544 406.617,535.544 416.534,535.544 416.534,49.587 396.699,49.587 			"/>
			<polygon style="fill:#FABC5F;" points="555.379,188.432 555.379,287.607 535.544,287.607 535.544,188.432 515.709,188.432 
				515.709,535.544 525.627,535.544 535.544,535.544 555.379,535.544 565.297,535.544 575.214,535.544 575.214,188.432 			"/>
			<rect y="485.957" style="fill:#FABC5F;" width="69.422" height="19.835"/>
			<rect x="525.627" y="485.957" style="fill:#FABC5F;" width="69.422" height="19.835"/>
			<polygon style="fill:#F09E26;" points="307.442,168.597 307.442,98.074 297.525,89.257 287.607,98.074 287.607,168.597 			"/>
			<polygon style="fill:#F09E26;" points="267.772,168.597 267.772,115.707 247.937,133.331 247.937,168.597 			"/>
			<polygon style="fill:#F09E26;" points="347.112,168.597 347.112,133.331 327.277,115.707 327.277,168.597 			"/>
			<polygon style="fill:#F09E26;" points="158.68,297.525 158.68,212.671 138.845,230.304 138.845,297.525 			"/>
			<polygon style="fill:#F09E26;" points="119.01,297.525 119.01,247.937 99.175,265.57 99.175,297.525 			"/>
			<polygon style="fill:#F09E26;" points="456.204,297.525 456.204,230.304 436.369,212.671 436.369,297.525 			"/>
			<polygon style="fill:#F09E26;" points="495.874,297.525 495.874,265.57 476.039,247.937 476.039,297.525 			"/>
			<rect x="436.369" y="386.782" style="fill:#FABC5F;" width="59.505" height="19.835"/>
			<rect x="99.175" y="386.782" style="fill:#FABC5F;" width="59.505" height="19.835"/>
			<rect x="257.855" y="406.617" style="fill:#F09E26;" width="79.34" height="19.835"/>
			<rect x="257.855" y="277.69" style="fill:#F09E26;" width="79.34" height="19.835"/>
			<rect x="436.369" y="406.617" style="fill:#F09E26;" width="59.505" height="19.835"/>
			<rect x="99.175" y="406.617" style="fill:#F09E26;" width="59.505" height="19.835"/>
			<rect x="19.835" y="505.792" style="fill:#F5AE45;" width="59.505" height="19.835"/>
			<rect x="178.515" y="505.792" style="fill:#F5AE45;" width="59.505" height="19.835"/>
			<rect x="515.709" y="505.792" style="fill:#F5AE45;" width="59.505" height="19.835"/>
			<rect x="19.835" y="317.359" style="fill:#F5AE45;" width="59.505" height="19.835"/>
			<rect x="178.515" y="317.359" style="fill:#F5AE45;" width="59.505" height="19.835"/>
			<rect x="357.029" y="317.359" style="fill:#F5AE45;" width="59.505" height="19.835"/>
			<rect x="515.709" y="317.359" style="fill:#F5AE45;" width="59.505" height="19.835"/>
			<rect x="19.835" y="406.617" style="fill:#F5AE45;" width="59.505" height="19.835"/>
			<rect x="178.515" y="406.617" style="fill:#F5AE45;" width="59.505" height="19.835"/>
			<rect x="515.709" y="406.617" style="fill:#F5AE45;" width="59.505" height="19.835"/>
			<rect x="178.515" y="188.432" style="fill:#F5AE45;" width="59.505" height="19.835"/>
			<rect x="357.029" y="188.432" style="fill:#F5AE45;" width="59.505" height="19.835"/>
			<rect x="357.029" y="406.617" style="fill:#F5AE45;" width="59.505" height="19.835"/>
			<rect x="357.029" y="505.792" style="fill:#F5AE45;" width="59.505" height="19.835"/>
			<path d="M109.092,406.617h39.67c5.474,0,9.917-4.443,9.917-9.918v-27.412c0.06-17.375-9.759-33.283-25.319-41.019
				c-2.787-1.398-6.079-1.398-8.866,0c-15.561,7.736-25.379,23.643-25.319,41.019v27.412
				C99.175,402.174,103.618,406.617,109.092,406.617z M119.01,369.287c-0.03-7.974,3.63-15.511,9.917-20.42
				c6.288,4.909,9.947,12.446,9.917,20.42v17.494H119.01V369.287z"/>
			<path d="M446.287,406.617h39.67c5.474,0,9.918-4.443,9.918-9.918v-27.412c0.06-17.375-9.759-33.283-25.319-41.019
				c-2.787-1.398-6.079-1.398-8.866,0c-15.561,7.736-25.379,23.643-25.319,41.019v27.412
				C436.369,402.174,440.812,406.617,446.287,406.617z M456.204,369.287c-0.03-7.974,3.63-15.511,9.917-20.42
				c6.288,4.909,9.947,12.446,9.917,20.42v17.494h-19.835V369.287z"/>
			<path d="M317.359,406.617h19.835v-19.835h-9.917v-29.752c0-16.433-13.319-29.752-29.752-29.752
				c-16.433,0-29.752,13.319-29.752,29.752v29.752h-9.917v19.835H317.359z M287.607,357.029c0-5.474,4.443-9.917,9.917-9.917
				c5.474,0,9.917,4.443,9.917,9.917v29.752h-19.835V357.029z"/>
			<path d="M317.359,277.69h19.835v-19.835h-9.917V240.36c0.04-17.366-9.769-33.243-25.319-40.969c-2.787-1.398-6.079-1.398-8.866,0
				c-15.551,7.726-25.359,23.604-25.319,40.969v17.494h-9.917v19.835H317.359z M287.607,240.36c-0.03-7.974,3.63-15.511,9.917-20.42
				c6.288,4.909,9.947,12.446,9.917,20.42v17.494h-19.835V240.36z"/>
			<path d="M575.214,287.607v-99.175h-19.835v89.257h-19.835v-89.257h-19.835v81.502l-99.175-88.157V49.587h-19.835v89.257h-19.835
				V49.587h-19.835v79.34l-52.92-47.039c-3.759-3.332-9.412-3.332-13.17,0l-52.92,47.039v-79.34h-19.835v89.257H198.35V49.587
				h-19.835v132.19L79.34,269.934v-81.502H59.505v89.257H39.67v-89.257H19.835v297.525H0v19.835h19.835v19.835H0v19.835h595.049
				v-19.835h-19.835v-19.835h19.835v-19.835h-19.835V287.607z M555.379,485.957h-19.835V297.525h19.835V485.957z M39.67,297.525
				h19.835v188.432H39.67V297.525z M39.67,505.792h19.835v19.835H39.67V505.792z M79.34,296.473l19.835-17.633v18.685h19.835
				v-36.318l19.835-17.633v53.951h19.835V225.95l19.835-17.633v317.31H158.68v-39.67c0-16.433-13.319-29.752-29.752-29.752
				s-29.752,13.319-29.752,29.752v39.67H79.34V296.473z M119.01,525.627v-39.67c0-5.474,4.443-9.917,9.917-9.917
				c5.474,0,9.917,4.443,9.917,9.917v39.67H119.01z M198.35,186.231V158.68h19.835v366.947H198.35V186.231z M238.02,155.417
				l9.917-8.817v21.997h19.835v-39.67l19.835-17.633v57.303h19.835v-57.254l19.835,17.633v39.67h19.835V146.6l9.917,8.817v370.21
				h-29.752v-39.67c0-16.433-13.319-29.752-29.752-29.752c-16.433,0-29.752,13.319-29.752,29.752v39.67H238.02V155.417z
				 M287.607,525.627v-39.67c0-5.474,4.443-9.917,9.917-9.917c5.474,0,9.917,4.443,9.917,9.917v39.67H287.607z M376.864,158.68
				h19.835v366.947h-19.835V158.68z M416.534,208.267l19.835,17.633v71.624h19.835v-53.951l19.835,17.633v36.318h19.835V278.84
				l19.835,17.633v229.153h-19.835v-39.67c0-16.433-13.319-29.752-29.752-29.752s-29.752,13.319-29.752,29.752v39.67h-19.835
				V208.267z M456.204,525.627v-39.67c0-5.474,4.443-9.917,9.917-9.917s9.917,4.443,9.917,9.917v39.67H456.204z M555.379,525.627
				h-19.835v-19.835h19.835V525.627z"/>
		</g>
	</g>
</g>
<g>
</g>
<g>
</g>
<g>
</g>
<g>
</g>
<g>
</g>
<g>
</g>
<g>
</g>
<g>
</g>
<g>
</g>
<g>
</g>
<g>
</g>
<g>
</g>
<g>
</g>
<g>
</g>
<g>
</g>
</svg>
