<svg id="Layer_1" enable-background="new 0 0 512 512" height="512" viewBox="0 0 512 512" width="512" xmlns="http://www.w3.org/2000/svg"><g><path d="m351.401 92.361-147.706-13.773 6.981-74.963c.205-2.197 2.16-3.813 4.366-3.607l139.722 13.029c2.203.205 3.823 2.15 3.618 4.345z" fill="#f0cbac"/><path d="m327.98 10.549-7.351 78.943 30.772 2.87 6.98-74.957c.205-2.201-1.412-4.152-3.612-4.357z" fill="#e4b591"/><path d="m347.115 505.044-215.405-20.087 38.436-412.758c.205-2.197 2.16-3.813 4.366-3.607l207.421 19.342c2.203.205 3.823 2.15 3.618 4.345z" fill="#fde6cd"/><path d="m355.15 85.436-38.807 416.738 30.772 2.87 38.436-412.752c.205-2.201-1.412-4.152-3.612-4.357z" fill="#f0cbac"/><path d="m251.77 88.073h30.927v216.339h-30.927z" fill="#e4b591" transform="matrix(.093 -.996 .996 .093 47.027 444.101)"/><path d="m344.087 189.398h30.927v30.906h-30.927z" fill="#d29d77" transform="matrix(.093 -.996 .996 .093 122.244 543.858)"/><path d="m221.206 176.42-32.824-3.061 4.402-47.277c.841-9.035 8.88-15.677 17.949-14.831 9.059.845 15.717 8.84 14.877 17.864z" fill="#455a64"/><path d="m285.079 182.376-32.824-3.061 4.402-47.277c.841-9.035 8.88-15.677 17.949-14.831 9.059.845 15.717 8.84 14.877 17.864z" fill="#455a64"/><g fill="#455a64"><path d="m266.293 77.15-32.824-3.061 2.579-27.693c.841-9.035 8.88-15.677 17.949-14.831 9.059.845 15.717 8.84 14.877 17.864z"/><path d="m322.971 82.436-32.824-3.061 2.579-27.693c.841-9.035 8.88-15.677 17.949-14.831 9.059.845 15.717 8.84 14.877 17.864z"/></g><path d="m348.952 188.332-32.824-3.061 4.402-47.277c.841-9.035 8.88-15.677 17.949-14.831 9.059.845 15.717 8.84 14.877 17.864z" fill="#455a64"/><path d="m239.44 220.485h30.927v216.339h-30.927z" fill="#e4b591" transform="matrix(.093 -.996 .996 .093 -95.998 551.942)"/><path d="m331.756 321.81h30.927v30.906h-30.927z" fill="#d29d77" transform="matrix(.093 -.996 .996 .093 -20.784 651.716)"/><g fill="#455a64"><path d="m208.876 308.832-32.824-3.061 4.402-47.277c.841-9.035 8.88-15.677 17.949-14.831 9.059.845 15.717 8.84 14.877 17.864z"/><path d="m272.749 314.788-32.824-3.061 4.402-47.277c.841-9.035 8.88-15.677 17.949-14.831 9.059.845 15.717 8.84 14.877 17.864z"/><path d="m336.622 320.744-32.824-3.061 4.402-47.277c.841-9.035 8.88-15.677 17.949-14.831 9.059.845 15.717 8.84 14.877 17.864z"/><path d="m191.952 490.575-32.824-3.061 10.227-109.821c.841-9.035 8.88-15.677 17.949-14.831 9.059.845 15.717 8.84 14.877 17.864z"/><path d="m255.825 496.531-32.824-3.061 10.227-109.821c.841-9.035 8.88-15.677 17.949-14.831 9.059.845 15.717 8.84 14.877 17.864z"/><path d="m319.697 502.487-32.824-3.061 10.227-109.82c.841-9.035 8.88-15.677 17.949-14.831 9.059.845 15.717 8.84 14.877 17.864z"/></g><path d="m496.542 512h-481.084c-8.537 0-15.458-6.921-15.458-15.458v-.011c0-8.537 6.921-15.458 15.458-15.458h481.084c8.537 0 15.458 6.921 15.458 15.458v.011c0 8.537-6.921 15.458-15.458 15.458z" fill="#d67b42"/><path d="m496.547 481.073h-30.905c8.534 0 15.453 6.923 15.453 15.463s-6.918 15.463-15.453 15.463h30.905c8.534 0 15.453-6.923 15.453-15.463s-6.918-15.463-15.453-15.463z" fill="#be652b"/></g></svg>