<svg id="Capa_1" enable-background="new 0 0 512 512" height="512" viewBox="0 0 512 512" width="512" xmlns="http://www.w3.org/2000/svg"><g><g><path d="m272.566 100.872h-33.133v-85.372c0-4.418 3.582-8 8-8h17.133c4.418 0 8 3.582 8 8z" fill="#e2d8ec"/><path d="m264.566 7.5h-17.133c-1.037 0-2.024.204-2.933.563 2.966 1.171 5.067 4.056 5.067 7.437v85.372h23v-85.372c-.001-4.418-3.582-8-8.001-8z" fill="#d5c6e4"/><path d="m231.15 131.75v-41.417c0-4.575 3.709-8.283 8.283-8.283h33.133c4.575 0 8.283 3.709 8.283 8.283v41.417z" fill="#f9f6f9"/><path d="m272.566 82.05h-23c4.575 0 8.283 3.709 8.283 8.283v41.417h23v-41.417c.001-4.574-3.708-8.283-8.283-8.283z" fill="#e2d8ec"/><path d="m446.8 504.5h-381.6c-4.418 0-8-3.582-8-8v-48.509h397.6v48.509c0 4.418-3.582 8-8 8z" fill="#a06a5a"/><path d="m90.333 379.624h331.333v50.952h-331.333z" fill="#a06a5a"/><path d="m398.666 379.624h23v50.952h-23z" fill="#845252"/><path d="m431.8 447.991v48.509c0 4.418-3.582 8-8 8h23c4.418 0 8-3.582 8-8v-48.509z" fill="#845252"/><g fill="#6b4f5a"><path d="m189.733 421.667c0-18.299-14.834-33.133-33.133-33.133s-33.133 14.834-33.133 33.133v7.168h66.267v-7.168z"/><path d="m289.133 421.667c0-18.299-14.834-33.133-33.133-33.133s-33.133 14.834-33.133 33.133v7.168h66.267v-7.168z"/><path d="m388.533 421.667c0-18.299-14.834-33.133-33.133-33.133s-33.133 14.834-33.133 33.133v7.168h66.267v-7.168z"/></g><path d="m123.466 355.4c0-132.533 99.4-182.233 99.4-182.233l33.134-20.883 33.133 20.882s99.4 49.7 99.4 182.233v11.784h-265.067z" fill="#f9f6f9"/><path d="m289.133 173.167-33.133-20.883-11.5 7.248 21.633 13.634s99.4 49.7 99.4 182.233v11.784h23v-11.783c0-132.533-99.4-182.233-99.4-182.233z" fill="#e2d8ec"/><path d="m421.666 388.533h-331.333l-13.105-6.553c-6.878-3.439-5.765-13.58 1.695-15.445l44.543-11.136h265.067l44.543 11.136c7.461 1.865 8.574 12.006 1.695 15.445z" fill="#e2d8ec"/><path d="m433.076 366.536-44.543-11.136h-23l44.543 11.136c7.461 1.865 8.574 12.006 1.695 15.445l-13.105 6.553h23l13.105-6.553c6.879-3.44 5.766-13.58-1.695-15.445z" fill="#d5c6e4"/><path d="m454.8 454.8h-397.6l-13.105-6.553c-6.878-3.439-5.765-13.58 1.695-15.445l44.543-11.136h331.333l44.543 11.136c7.461 1.865 8.574 12.006 1.695 15.445z" fill="#f9f6f9"/><path d="m466.21 432.802-44.543-11.136h-23l44.543 11.136c7.461 1.865 8.574 12.006 1.695 15.445l-13.105 6.553h23l13.105-6.553c6.879-3.439 5.765-13.579-1.695-15.445z" fill="#e2d8ec"/><path d="m289.133 173.167h-66.267v-29.702c0-2.197.873-4.304 2.426-5.857l24.85-24.85c3.235-3.235 8.48-3.235 11.714 0l24.85 24.85c1.553 1.553 2.426 3.66 2.426 5.857v29.702z" fill="#e2d8ec"/><path d="m286.707 137.607-24.85-24.85c-3.235-3.235-8.48-3.235-11.714 0l-5.643 5.643 19.207 19.207c1.553 1.553 2.426 3.66 2.426 5.857v29.702h23v-29.702c0-2.196-.873-4.303-2.426-5.857z" fill="#d5c6e4"/></g><path d="m479.89 439.116c-.728-6.636-5.385-11.971-11.861-13.59l-38.862-9.716v-22.642l8.96-4.48c5.971-2.986 9.358-9.203 8.63-15.839-.729-6.636-5.385-11.971-11.861-13.59l-38.935-9.734c-1.498-67.517-28.593-113.177-51.433-139.824-19.802-23.102-39.527-36.046-47.895-40.95v-25.287c0-4.218-1.643-8.183-4.622-11.16l-3.661-3.661v-38.31c0-5.99-3.354-11.211-8.283-13.884v-60.949c0-8.547-6.953-15.5-15.5-15.5h-17.133c-8.547 0-15.5 6.953-15.5 15.5v60.949c-4.929 2.673-8.283 7.894-8.283 13.884v38.311l-3.659 3.659c-2.982 2.98-4.625 6.944-4.625 11.162v25.291c-5.435 3.191-15.671 9.783-27.608 20.337-3.103 2.744-3.395 7.483-.651 10.587 1.482 1.677 3.547 2.532 5.622 2.532 1.765 0 3.539-.62 4.965-1.881 12.68-11.211 23.295-17.558 27.064-19.664h62.479c5.552 3.107 26.078 15.508 46.338 39.309 29.991 35.234 45.89 78.243 47.338 127.925h-249.827c1.434-49.164 17.035-91.821 46.45-126.875 2.663-3.174 2.249-7.904-.924-10.566-3.173-2.665-7.904-2.25-10.566.924-31.595 37.654-48.82 85.312-50.008 138.144l-38.935 9.733c-6.477 1.62-11.132 6.954-11.861 13.59-.728 6.636 2.659 12.853 8.631 15.839l8.96 4.48v22.643l-38.863 9.715c-6.477 1.619-11.132 6.954-11.861 13.59s2.659 12.853 8.631 15.839l8.959 4.48v45.063c0 4.143 3.358 7.5 7.5 7.5h59.258c4.142 0 7.5-3.357 7.5-7.5s-3.358-7.5-7.5-7.5h-2.058v-17.35c0-4.143-3.358-7.5-7.5-7.5s-7.5 3.357-7.5 7.5v17.35h-34.7v-34.7h382.6v34.7h-34.7v-17.35c0-4.143-3.357-7.5-7.5-7.5s-7.5 3.357-7.5 7.5v17.35h-34.7v-17.35c0-4.143-3.357-7.5-7.5-7.5s-7.5 3.357-7.5 7.5v17.35h-34.7v-17.35c0-4.143-3.357-7.5-7.5-7.5s-7.5 3.357-7.5 7.5v17.35h-34.7v-17.35c0-4.143-3.357-7.5-7.5-7.5-4.142 0-7.5 3.357-7.5 7.5v17.35h-34.7v-17.35c0-4.143-3.358-7.5-7.5-7.5s-7.5 3.357-7.5 7.5v17.35h-34.7v-17.35c0-4.143-3.358-7.5-7.5-7.5s-7.5 3.357-7.5 7.5v17.35h-2.642c-4.142 0-7.5 3.357-7.5 7.5s3.358 7.5 7.5 7.5h308.342c4.142 0 7.5-3.357 7.5-7.5v-45.065l8.96-4.48c5.97-2.985 9.359-9.203 8.63-15.839zm-232.957-382.699h18.133v18.133h-18.133zm.5-41.417h17.133c.275 0 .5.225.5.5v25.917h-18.133v-25.917c0-.275.224-.5.5-.5zm-8.783 75.333c0-.432.352-.783.783-.783h33.133c.432 0 .783.352.783.783v23.31l-6.189-6.19c-6.153-6.152-16.167-6.153-22.321.001l-6.189 6.19zm42.983 75.334h-51.266v-22.202c0-.206.083-.408.23-.555l24.849-24.85c.307-.307.803-.306 1.109-.001l24.851 24.852c.145.145.228.346.228.553v22.203zm14.294 248.5c-1.272-6.785-4.229-12.983-8.429-18.134h36.403c-4.2 5.151-7.157 11.348-8.429 18.134zm-99.399 0c-1.272-6.785-4.229-12.983-8.429-18.134h36.402c-4.2 5.151-7.157 11.348-8.429 18.134zm-98.695 0v-18.134h27.268c-4.2 5.151-7.157 11.348-8.429 18.134zm58.767-18.134c11.526 0 21.297 7.647 24.512 18.134h-49.023c3.214-10.487 12.985-18.134 24.511-18.134zm99.4 0c11.525 0 21.296 7.647 24.511 18.134h-49.022c3.214-10.487 12.985-18.134 24.511-18.134zm99.4 0c11.525 0 21.296 7.647 24.511 18.134h-49.023c3.215-10.487 12.986-18.134 24.512-18.134zm39.927 18.134c-1.272-6.785-4.229-12.983-8.429-18.134h27.268v18.134zm-315.173-39.681c.06-.542.378-.621.588-.674l43.648-10.912h263.22l43.647 10.912c.211.053.53.132.59.674.059.542-.234.69-.429.786l-11.522 5.761h-327.792l-11.521-5.761c-.195-.097-.489-.244-.429-.786zm384.397 67.053-11.521 5.761h-394.06l-11.521-5.761c-.194-.098-.488-.244-.429-.786.06-.542.378-.621.588-.674l43.648-10.912h329.487l43.646 10.912c.211.053.529.132.589.674.061.542-.233.688-.427.786z"/></g></svg>